<svg width="126" height="88" viewBox="0 0 126 88" fill="none" xmlns="http://www.w3.org/2000/svg">
<g clip-path="url(#clip0_2_38)">
<path d="M103.598 43.9937C91.5803 43.9937 81.8029 53.7518 81.8029 65.7453C81.8029 77.7388 91.5803 87.4969 103.598 87.4969C115.615 87.4969 125.392 77.7388 125.392 65.7453C125.392 53.7486 115.612 43.9937 103.598 43.9937ZM113.397 69.9036L113.375 69.9255L105.753 62.3155V77.5012H101.395V62.3155L93.792 69.9068V63.7599L103.569 53.9988L113.394 63.8037V69.9068L113.397 69.9036ZM102.63 29.5146C102.63 29.5146 102.598 29.5146 102.586 29.5146C102.019 21.6106 95.4179 15.37 87.351 15.37C84.6819 15.37 82.1725 16.0547 79.9921 17.2553C74.7761 7.30029 64.3377 0.5 52.2953 0.5C35.369 0.5 21.5973 13.9349 21.0804 30.7027C9.28553 31.6375 0 41.4831 0 53.4985C0 66.1299 10.2598 76.3694 22.9193 76.3694H78.8174C77.4076 73.1084 76.6244 69.516 76.6244 65.7484C76.6244 50.9035 88.7263 38.8286 103.598 38.8286C112.921 38.8286 121.154 43.5779 126 50.7753C124.904 38.8568 114.863 29.5177 102.63 29.5177V29.5146ZM38.674 17.5898C38.4955 17.7368 38.32 17.8837 38.154 18.0463C37.4993 18.6779 36.8884 19.347 36.4122 20.1255C34.5826 23.1114 34.2349 26.3099 34.6359 29.7491C35.0212 33.0539 29.8365 33.0195 29.4574 29.7491C28.7463 23.6398 30.7043 16.7457 36.0394 13.1501C38.8088 11.2804 41.387 15.7295 38.674 17.593V17.5898ZM38.6208 17.6274C38.3451 17.8556 38.5049 17.7118 38.6208 17.6274V17.6274Z" fill="#319DFF"/>
</g>
<defs>
<clipPath id="clip0_2_38">
<rect width="126" height="87" fill="white" transform="translate(0 0.5)"/>
</clipPath>
</defs>
</svg>
